<?xml version="1.0" encoding="utf-8"?>
<!-- Generator: Adobe Illustrator 19.0.0, SVG Export Plug-In . SVG Version: 6.00 Build 0)  -->
<svg version="1.1" id="Layer_1" xmlns="http://www.w3.org/2000/svg" xmlns:xlink="http://www.w3.org/1999/xlink" x="0px" y="0px"
	 viewBox="-811 113 76.7 35" style="enable-background:new -811 113 76.7 35;" xml:space="preserve">
<defs>
	<rect id="SVGID_1_" x="-811" y="118.2" width="76.7" height="24.7"/>
</defs>
<path style="fill:#EEAD0E;" d="M-754.9,137.1c0,3.2,2.6,5.7,5.7,5.7c3.1,0,5.7-2.6,5.7-5.7c0-3.2-2.6-5.7-5.7-5.7
		C-752.3,131.4-754.9,133.9-754.9,137.1"/>
<path style="fill:#EEAD0E;" d="M-804.3,137.1c0,3.2,2.6,5.7,5.7,5.7c3.2,0,5.7-2.6,5.7-5.7c0-3.2-2.6-5.7-5.7-5.7
		C-801.7,131.4-804.3,133.9-804.3,137.1"/>
<path d="M-734.3,134.2c0-0.3-0.8-0.3-0.8-0.6c-0.1-1.9-0.2-4.1-0.5-6c-0.3-2.4-5.1-2.5-8.1-3.4c-2.1-0.7-3.9-2.1-6.6-3.3
	c-3-1.3-5.6-2.5-8.8-2.5c-5.1,0-12.8-0.6-17.6,0.9c-4.6,1.5-8.8,4.1-13.1,6.1c-5.3,0.6-11.1,1.6-16.4,2.9c-1.7,0.4-2.5,1.2-3,2.3
	c-0.6,1.1-0.9,2.2-1.1,2.8c-0.4,0-0.4-0.1-0.6,0.2c-0.1,0.3-0.1,0.6-0.1,1c-0.1,1-0.1,2.2,0.2,3.1c0.2,0.8,0.4,1.2,0.9,1.5
	c0.3,0.2,0.7,0.4,1.1,0.4l2,0.1c1.2-0.2,0.9-0.4,0.9-1.8c0-0.2,0-0.4,0-0.7c0-4.1,3.3-7.5,7.5-7.5c4.1,0,7.5,3.3,7.5,7.5
	c0,0.4,0,0.8,0,1.2c-0.2,2.5-0.4,2.1,1.9,2.2h31.3c1.7-0.2,1.6,0,1.4-2.1c0-0.4,0-0.8,0-1.3c0-4.1,3.3-7.5,7.5-7.5s7.5,3.3,7.5,7.5
	c0,0.4,0,0.7,0,1.1c-0.1,1.7,0.3,1.6,1.5,1.5s2.5-0.2,3.5-0.4c0.8-0.1,1.5-0.3,1.7-0.6C-734.2,137.9-734.3,135.5-734.3,134.2
	 M-750.3,124.2c-0.1,0.4-0.5,1.1-0.7,1.4c-0.2,0.2-0.3,0.4-0.7,0.4c-1,0-2.1,0.1-3.2,0.1l0.4-5c1.7,0.8,3.8,1.9,4.1,2.3
	C-750.2,123.8-750.2,124-750.3,124.2 M-755.3,120.9l-0.5,5.4c-3.2,0.2-6.6,0.4-9.4,0.4c-1.1,0-1.2,0.3-1.1-0.7
	c0.5-3.8,0.5-5,0.9-5.9c0.1-0.1,0.4-0.3,0.6-0.3l4.4,0.1c1.3,0,2.7,0.3,4,0.6C-756.2,120.5-755.8,120.6-755.3,120.9 M-767.4,120.3
	c-0.4,1.2-0.6,3.7-0.9,5.4c-0.1,0.8-0.3,1-1.2,1c-3.3,0-12.3,0.7-12.2,0.5c0-0.1,0.2-0.7,0.3-1.3c0.1-1-1.8-1.1-2.9-1
	c2.2-1.6,5.4-3.4,8.3-4.4c1-0.3,3.8-0.8,5.7-0.8l2.5-0.1C-767.4,119.7-767.3,119.9-767.4,120.3"/>
</svg>
